<svg width="38" height="40" viewBox="0 0 38 40" fill="none" xmlns="http://www.w3.org/2000/svg">
<path d="M14.3744 32.4579C5.83268 35.0204 5.83268 28.187 2.41602 27.3329M26.3327 37.5829V30.9716C26.3968 30.157 26.2867 29.3381 26.0098 28.5694C25.733 27.8006 25.2956 27.0996 24.7269 26.5129C30.091 25.915 35.7285 23.882 35.7285 14.5545C35.7281 12.1694 34.8106 9.87576 33.166 8.1483C33.9448 6.06158 33.8897 3.75506 33.0123 1.70788C33.0123 1.70788 30.9964 1.10996 26.3327 4.23621C22.4172 3.17503 18.2898 3.17503 14.3744 4.23621C9.7106 1.10996 7.69477 1.70788 7.69477 1.70788C6.81733 3.75506 6.76226 6.06158 7.54102 8.1483C5.88415 9.88858 4.96574 12.203 4.97852 14.6058C4.97852 23.865 10.616 25.8979 15.9802 26.5641C15.4181 27.1449 14.9847 27.8375 14.708 28.5969C14.4313 29.3563 14.3176 30.1654 14.3744 30.9716V37.5829" stroke="white" stroke-width="3.41667" stroke-linecap="round" stroke-linejoin="round"/>
</svg>
